<?xml version="1.0" encoding="UTF-8" standalone="no"?>
<svg width="64" height="64" viewBox="0 0 64 64" xmlns="http://www.w3.org/2000/svg">
  <g>
    <!-- Background Circle -->
    <circle cx="32" cy="32" r="30" fill="#3465A4" />
    
    <!-- Chat Bubble -->
    <path d="M18,20 L46,20 C48.2,20 50,21.8 50,24 L50,36 C50,38.2 48.2,40 46,40 L40,40 L40,48 L32,40 L18,40 C15.8,40 14,38.2 14,36 L14,24 C14,21.8 15.8,20 18,20 Z" fill="#FFFFFF" />
    
    <!-- AI Text -->
    <text x="32" y="34" font-family="Arial, sans-serif" font-size="14" font-weight="bold" text-anchor="middle" fill="#3465A4">AI</text>
    
    <!-- Gear Icon -->
    <g transform="translate(42, 26) scale(0.5)">
      <path d="M19.4,13 C19.4,12.3 19.5,11.7 19.6,11.1 L17.2,9.4 L19.2,5.9 L21.6,7.6 C22.1,7 22.6,6.6 23.2,6.2 L22.7,3.5 L26.7,3 L27.2,5.7 C27.8,5.7 28.4,5.8 29,6 L30.7,3.6 L34.2,5.6 L32.5,8 C33,8.5 33.5,9 33.9,9.6 L36.6,9.1 L37.1,13.1 L34.4,13.6 C34.5,14.2 34.5,14.8 34.3,15.4 L36.7,17.1 L34.7,20.6 L32.3,18.9 C31.8,19.5 31.3,19.9 30.7,20.3 L31.2,23 L27.2,23.5 L26.7,20.8 C26.1,20.8 25.5,20.7 24.9,20.5 L23.2,22.9 L19.7,20.9 L21.4,18.5 C20.9,18 20.4,17.5 20,16.9 L17.3,17.4 L16.8,13.4 L19.5,12.9 C19.4,12.9 19.4,13 19.4,13 Z" fill="#3465A4"/>
      <circle cx="27" cy="13" r="4" fill="#FFFFFF"/>
    </g>
    
    <!-- Code Brackets -->
    <g transform="translate(18, 26)">
      <path d="M5,0 L0,5 L5,10" stroke="#3465A4" stroke-width="2" fill="none"/>
      <path d="M10,0 L15,5 L10,10" stroke="#3465A4" stroke-width="2" fill="none"/>
    </g>
    
  </g>
</svg> 